# xmcd CD database file
#
# Track frame offsets:
#	150
#	2764
#	16847
#	47623
#	61667
#	87166
#	106555
#	133253
#	162320
#	192715
#	233351
#	268125
#
# Disc length: 3612 seconds
#
# Revision: 0
# Processed by: cddbd v1.5.2PL0 Copyright (c) Steve Scherf et al.
# Submitted via: CDex 1.51
#
DISCID=8f0e1a0c
DTITLE=Cornelsen - Half Broke Horses
DYEAR=2015
DGENRE=Blues
TTITLE0=Copyright
TTITLE1=Fantasy Journey
TTITLE2=Meeting Lily
TTITLE3=Lilly's Career Options
TTITLE4=Lily's accomplishments
TTITLE5=Lily back in Red Lake
TTITLE6=Hard Times Hit Arizona
TTITLE7=LIly Takes A Stand
TTITLE8=Trouble in Paradise
TTITLE9=Lily worrying about Jim
TTITLE10=Rex the Flyboy
TTITLE11=Copyright
EXTD=YEAR: 2015
EXTT0=
EXTT1=
EXTT2=
EXTT3=
EXTT4=
EXTT5=
EXTT6=
EXTT7=
EXTT8=
EXTT9=
EXTT10=
EXTT11=
PLAYORDER=
